# xmcd CD database file
#
# Track frame offsets:
#	150
#	5125
#	20030
#	30788
#	43493
#	59405
#	69513
#	82867
#	94788
#	109820
#	125138
#	132798
#	148765
#	177839
#
# Disc length: 3852 seconds
#
# Revision: 2
# Processed by: cddbd v1.5PL3 Copyright (c) Steve Scherf et al.
# Submitted via: CDex 1.50beta9
#
DISCID=c30f0a0e
DTITLE=The Offspring - Splinter(Japenese Version)
DYEAR=2003
DGENRE=Punk Rock
TTITLE0=Neocon (Album Version)
TTITLE1=The Noose (Album Version)
TTITLE2=Long Way Home (Album Version)
TTITLE3=Hit That (Album Version)
TTITLE4=Race Against Myself (Album Version)
TTITLE5=(Can't Get My) Head Around You (Album Version)
TTITLE6=The Worst Hangover Ever (Album Version)
TTITLE7=Never Gonna Find Me (Explicit Album Version)
TTITLE8=Lightning Rod (Album Version)
TTITLE9=Spare Me The Details (Explicit Album Version)
TTITLE10=Da Hui (Explicit Album Version)
TTITLE11=When You're In Prison (Explicit Album Version)
TTITLE12=Defy You (Acoustic)(Bonus Track for Japan)
TTITLE13=data
EXTD=YEAR: 2003
EXTT0=
EXTT1=
EXTT2=
EXTT3=
EXTT4=
EXTT5=
EXTT6=
EXTT7=
EXTT8=
EXTT9=
EXTT10=
EXTT11=
EXTT12=
EXTT13=
PLAYORDER=
